<svg width="1000" height="1000" viewBox="0 0 1000 1000" fill="none" xmlns="http://www.w3.org/2000/svg">
<path d="M1000 500C1000 776.142 776.142 1000 500 1000C223.858 1000 0 776.142 0 500C0 223.858 223.858 0 500 0C776.142 0 1000 223.858 1000 500Z" fill="#F6F7F8"/>
<path fill-rule="evenodd" clip-rule="evenodd" d="M444.729 692.572C467.373 692.572 483.547 710.364 483.547 731.39C483.547 752.416 467.373 770.207 444.729 770.207C423.703 770.207 405.912 752.416 405.912 731.39C405.912 710.364 423.703 692.572 444.729 692.572Z" fill="#DEE2E6"/>
<path fill-rule="evenodd" clip-rule="evenodd" d="M653.372 692.572C674.398 692.572 692.189 710.364 692.189 731.39C692.189 752.416 674.398 770.207 653.372 770.207C630.729 770.207 614.555 752.416 614.555 731.39C614.555 710.364 630.729 692.572 653.372 692.572Z" fill="#DEE2E6"/>
<path fill-rule="evenodd" clip-rule="evenodd" d="M228 246.174C228 255.878 234.47 262.348 244.174 262.348H278.139C300.782 262.348 320.191 278.522 323.426 299.548L375.182 608.468C381.652 645.668 413.999 673.164 451.199 673.164H698.659C708.364 673.164 714.833 666.694 714.833 656.99C714.833 647.286 708.364 640.816 698.659 640.816H451.199C428.556 640.816 410.765 624.642 405.912 603.616V595.529H654.99C682.485 595.529 706.746 577.738 713.216 550.242L771.442 349.687C774.676 335.13 763.355 323.808 750.416 323.808H360.626L355.773 294.695C349.304 257.496 316.956 230 278.139 230H244.174C234.47 230 228 236.47 228 246.174ZM489.803 410H510.823V431.264H489.803V410ZM603.819 410H582.8V431.264H603.819V410ZM637.029 508.816C619.236 498.627 592.497 483.315 546.357 483.315C500.218 483.315 473.478 498.626 455.685 508.815C451.219 511.372 447.317 513.607 443.812 515.195C443.812 515.195 439.753 503.823 449.784 497.445C450.647 496.896 451.517 496.34 452.396 495.78C474.482 481.69 501.853 464.227 546.34 464.227C590.853 464.227 618.259 481.71 640.354 495.804C641.22 496.357 642.077 496.904 642.928 497.445C652.961 503.823 648.899 515.195 648.899 515.195C645.395 513.607 641.494 511.373 637.029 508.816Z" fill="#DEE2E6"/>
</svg>
