<svg width="1000" height="1000" viewBox="0 0 1000 1000" fill="none" xmlns="http://www.w3.org/2000/svg">
<circle cx="500" cy="500" r="500" fill="#F6F7F8"/>
<path fill-rule="evenodd" clip-rule="evenodd" d="M719.764 300.002C713.186 293.333 702.298 293.333 695.674 300.002L441.718 553.458C435.094 560.218 424.252 560.218 417.628 553.458L306.346 439.819C303.08 436.507 298.725 434.828 294.415 434.828C290.014 434.782 285.569 436.416 282.212 439.819L233.081 484.186C229.769 487.543 228 491.761 228 496.162C228 500.562 229.769 505.235 233.081 508.547L417.628 699.717C424.252 706.386 435.094 706.386 441.718 699.717L768.032 373.131C774.656 366.462 774.656 355.438 768.032 348.769L719.764 300.002Z" fill="#DEE2E6"/>
</svg>
