<svg width="315" height="265" viewBox="0 0 315 265" fill="none" xmlns="http://www.w3.org/2000/svg">
<mask id="mask0" mask-type="alpha" maskUnits="userSpaceOnUse" x="0" y="0" width="315" height="265">
<rect width="315" height="265" fill="#C4C4C4"/>
</mask>
<g mask="url(#mask0)">
<path d="M242.378 76.9286L257.986 56.6226L258.104 50.3066H228.411V58.9286H244.927C244.237 59.7456 243.548 60.5726 242.832 61.4566L227 82.0606V88.0796H258.352V79.5296H240.352C241.084 78.6326 241.747 77.7816 242.378 76.9286Z" fill="#DEE2E6"/>
<path d="M273.414 43.5343L282.893 31.2003L282.964 27.3643H264.931V32.6013H274.963C274.542 33.0973 274.125 33.5993 273.69 34.1363L264.074 46.6513V50.3063H283.116V45.1143H272.184C272.629 44.5683 273.029 44.0523 273.414 43.5343Z" fill="#DEE2E6"/>
<path d="M293.802 23.8L298.79 17.309L298.827 15.29H289.338V18.046H294.617C294.395 18.308 294.176 18.571 293.947 18.855L288.887 25.44V27.364H298.908V24.632H293.155C293.388 24.345 293.6 24.072 293.802 23.8Z" fill="#DEE2E6"/>
<path d="M304.479 14.093C304.582 13.967 304.674 13.848 304.762 13.729L306.95 10.884L306.967 10H302.808V11.207H305.121C305.024 11.321 304.928 11.437 304.828 11.561L302.61 14.447V15.29H307V14.093H304.479Z" fill="#DEE2E6"/>
<path fill-rule="evenodd" clip-rule="evenodd" d="M156.5 252C195.988 252 228 219.988 228 180.5C228 141.012 195.988 109 156.5 109C117.012 109 85 141.012 85 180.5C85 219.988 117.012 252 156.5 252ZM108 161.779C107.97 163.458 109.325 164.842 111.029 164.873C111.489 164.881 111.941 164.885 112.383 164.885C122.358 164.885 127.743 162.763 134.774 156.255C136.014 155.107 136.077 153.184 134.913 151.959C133.748 150.74 131.8 150.676 130.554 151.824C123.971 157.917 119.763 158.944 111.137 158.795C109.289 158.775 108.031 160.101 108 161.779ZM133.886 209.481C133.886 210.32 134.575 211 135.427 211H177.476C178.328 211 179.018 210.32 179.018 209.481C179.018 196.126 168.895 185.261 156.452 185.261C144.009 185.261 133.886 196.126 133.886 209.481ZM200.617 164.885C201.059 164.885 201.511 164.881 201.971 164.873C203.675 164.842 205.03 163.458 205 161.779C204.969 160.103 203.651 158.803 201.863 158.795C193.288 158.941 189.032 157.918 182.446 151.824C181.2 150.673 179.252 150.737 178.087 151.959C176.923 153.184 176.986 155.107 178.226 156.255C185.257 162.763 190.642 164.885 200.617 164.885Z" fill="#DEE2E6"/>
</g>
</svg>
