<svg width="1000" height="1000" viewBox="0 0 1000 1000" fill="none" xmlns="http://www.w3.org/2000/svg">
<circle cx="500" cy="500" r="500" fill="#F6F7F8"/>
<path d="M588.813 253.188L633.282 195.334L633.618 177.339H549.02V201.904H596.076C594.11 204.232 592.147 206.588 590.107 209.106L545 267.809V284.958H634.325V260.598H583.041C585.127 258.042 587.016 255.618 588.813 253.188Z" fill="#DEE2E6"/>
<path d="M677.239 158.043L704.246 122.902L704.448 111.973H653.071V126.893H681.653C680.453 128.307 679.265 129.737 678.026 131.267L650.629 166.923V177.337H704.881V162.544H673.735C675.003 160.989 676.143 159.518 677.239 158.043Z" fill="#DEE2E6"/>
<path d="M735.327 101.816L749.538 83.3226L749.643 77.5703H722.608V85.4224H737.649C737.016 86.1689 736.392 86.9182 735.74 87.7274L721.323 106.489V111.97H749.874V104.187H733.483C734.147 103.369 734.751 102.591 735.327 101.816Z" fill="#DEE2E6"/>
<path d="M765.745 74.1614C766.038 73.8024 766.3 73.4633 766.551 73.1243L772.785 65.0186L772.833 62.5H760.984V65.9389H767.574C767.298 66.2637 767.024 66.5942 766.739 66.9474L760.42 75.1699V77.5717H772.927V74.1614H765.745Z" fill="#DEE2E6"/>
<path fill-rule="evenodd" clip-rule="evenodd" d="M451.211 721.982C563.717 721.982 654.921 630.777 654.921 518.271C654.921 405.765 563.717 314.561 451.211 314.561C338.704 314.561 247.5 405.765 247.5 518.271C247.5 630.777 338.704 721.982 451.211 721.982ZM313.031 464.935C312.945 469.717 316.804 473.661 321.658 473.75C322.97 473.771 324.257 473.784 325.517 473.784C353.937 473.784 369.279 467.738 389.312 449.196C392.845 445.924 393.025 440.445 389.706 436.957C386.388 433.482 380.839 433.3 377.289 436.572C358.534 453.931 346.545 456.856 321.967 456.434C316.702 456.374 313.117 460.154 313.031 464.935ZM386.782 600.84C386.782 603.233 388.746 605.17 391.173 605.17H510.975C513.402 605.17 515.366 603.233 515.366 600.84C515.366 562.792 486.526 531.837 451.074 531.837C415.622 531.837 386.782 562.792 386.782 600.84ZM576.905 473.784C578.165 473.784 579.452 473.771 580.764 473.75C585.618 473.661 589.477 469.717 589.391 464.935C589.305 460.158 585.549 456.455 580.455 456.434C556.023 456.848 543.897 453.935 525.133 436.572C521.583 433.292 516.035 433.473 512.716 436.957C509.397 440.445 509.577 445.924 513.11 449.196C533.143 467.738 548.485 473.784 576.905 473.784Z" fill="#DEE2E6"/>
</svg>
