<svg width="1000" height="1000" viewBox="0 0 1000 1000" fill="none" xmlns="http://www.w3.org/2000/svg">
<circle cx="500" cy="500" r="500" fill="#F6F7F8"/>
<path d="M312.161 458.627L390.392 480.881C394.857 482.144 396.941 487.256 394.678 491.346L384.26 510.233C382.652 513.18 383.247 516.909 385.748 519.134L435.937 564.365C438.378 566.59 442.01 566.831 444.689 564.966L464.038 551.674C468.444 548.666 474.398 551.313 475.112 556.606L485.531 631.128C486.365 637.022 493.509 639.428 497.677 635.218L561.976 570.018C562.333 569.658 562.691 569.357 563.107 569.116C566.501 566.831 582.873 554.14 574.181 527.194C574.062 526.893 573.943 526.532 573.824 526.232L562.81 501.932C561.143 498.263 562.869 493.933 566.56 492.309C656.937 452.612 704.745 373.399 728.5 306.997C742.908 266.698 748.921 227.483 750.945 211.062C751.481 206.672 748.028 202.882 743.682 203.003C708.257 203.725 564.774 217.558 458.621 387.473C456.656 390.601 452.727 391.804 449.452 390.18L409.384 370.271C409.384 370.271 398.667 360.948 373.96 383.563L309.184 446.417C305.195 450.326 306.862 457.063 312.161 458.627ZM613.594 306.997C618.774 293.584 633.241 285.524 647.232 288.231C665.986 291.9 676.524 311.628 669.618 329.311C664.438 342.724 649.971 350.783 635.98 348.077C617.226 344.408 606.748 324.68 613.594 306.997Z" fill="#DEE2E6"/>
<path d="M308.937 605.928C311.973 605.928 315.01 604.725 317.332 602.379L372.046 547.105C376.69 542.413 376.69 534.774 372.046 530.083C367.402 525.392 359.841 525.392 355.197 530.083L300.483 585.358C295.839 590.049 295.839 597.688 300.483 602.379C302.864 604.725 305.901 605.928 308.937 605.928Z" fill="#DEE2E6"/>
<path d="M405.812 581.147L351.098 636.421C346.454 641.113 346.454 648.752 351.098 653.443C353.42 655.789 356.456 656.992 359.493 656.992C362.529 656.992 365.565 655.789 367.887 653.443L422.602 598.168C427.245 593.477 427.245 585.838 422.602 581.147C417.958 576.455 410.456 576.455 405.812 581.147Z" fill="#DEE2E6"/>
<path d="M308.951 656.99C311.987 656.99 315.023 655.787 317.345 653.441L397.303 572.604C401.947 567.912 401.947 560.274 397.303 555.582C392.659 550.891 385.098 550.891 380.454 555.582L300.556 636.419C295.912 641.111 295.912 648.749 300.556 653.441C302.878 655.787 305.914 656.99 308.951 656.99Z" fill="#DEE2E6"/>
</svg>
