<svg width="1000" height="1000" viewBox="0 0 1000 1000" fill="none" xmlns="http://www.w3.org/2000/svg">
<circle cx="500" cy="500" r="500" fill="#F6F7F8"/>
<path fill-rule="evenodd" clip-rule="evenodd" d="M677.529 259C709.517 259 735.507 284.99 735.507 316.978H736.173V552.891C736.173 584.879 710.183 610.869 678.195 610.869H518.921C518.255 610.869 518.255 611.535 518.255 611.535L443.616 685.508C436.285 693.505 423.623 688.173 423.623 677.511V610.869H364.978C332.99 610.869 307 584.879 307 552.891V316.978C307 284.99 332.99 259 364.978 259H677.529ZM533.831 476.419H495.264V472.96C495.366 437.343 504.931 426.455 522.027 415.668C534.544 407.731 544.211 398.877 544.211 385.547C544.211 371.402 533.119 362.243 519.381 362.243C506.05 362.243 493.737 371.096 493.127 387.684H451.608C452.524 346.979 482.645 327.644 519.585 327.644C559.984 327.644 588.681 348.404 588.681 384.02C588.681 407.934 576.266 422.893 557.236 434.188C541.158 443.856 534.035 453.116 533.831 472.96V476.419ZM539.734 517.124C539.632 530.658 528.336 541.547 515.311 541.547C501.878 541.547 490.786 530.658 490.888 517.124C490.786 503.793 501.878 492.905 515.311 492.905C528.336 492.905 539.632 503.793 539.734 517.124Z" fill="#DEE2E6"/>
</svg>
