<?xml version="1.0" encoding="utf-8"?><svg xmlns="http://www.w3.org/2000/svg" xmlns:xlink="http://www.w3.org/1999/xlink"><symbol viewBox="0 0 16 16" id="icon-add" xmlns="http://www.w3.org/2000/svg"><path fill-rule="evenodd" clip-rule="evenodd" d="M0 8c0 .379.307.686.686.686h14.628a.686.686 0 0 0 0-1.372H.686A.686.686 0 0 0 0 8z"/><path fill-rule="evenodd" clip-rule="evenodd" d="M8 16a.686.686 0 0 1-.686-.686V.686a.686.686 0 1 1 1.372 0v14.628A.686.686 0 0 1 8 16z"/></symbol><symbol viewBox="0 0 17 12" id="icon-back" xmlns="http://www.w3.org/2000/svg"><path fill-rule="evenodd" clip-rule="evenodd" d="M.47 4.993a.75.75 0 0 0 0 1.06l4.773 4.773a.75.75 0 1 0 1.06-1.06L2.811 6.273H16a.75.75 0 0 0 0-1.5H2.81L6.304 1.28A.75.75 0 0 0 5.243.22L.47 4.993z"/></symbol><symbol viewBox="0 0 20 20" id="icon-basket" xmlns="http://www.w3.org/2000/svg"><path fill-rule="evenodd" clip-rule="evenodd" d="M7.968 17.126c.833 0 1.427.658 1.427 1.437 0 .778-.594 1.437-1.427 1.437-.773 0-1.427-.659-1.427-1.437 0-.779.654-1.437 1.427-1.437zm7.671 0c.773 0 1.427.658 1.427 1.437 0 .778-.654 1.437-1.427 1.437-.833 0-1.428-.659-1.428-1.437 0-.779.595-1.437 1.428-1.437z"/><path d="M.595 1.198c-.357 0-.595-.24-.595-.6C0 .24.238 0 .595 0h1.248a2.885 2.885 0 0 1 2.855 2.395l.178 1.078h14.33c.476 0 .892.42.774.958l-2.141 7.425c-.238 1.018-1.13 1.677-2.14 1.677H6.54v.3c.178.778.832 1.377 1.665 1.377h9.098c.356 0 .594.24.594.598 0 .36-.238.6-.594.6H8.206c-1.368 0-2.557-1.019-2.795-2.396L3.508 2.575c-.119-.779-.832-1.377-1.665-1.377H.595z"/></symbol><symbol viewBox="0 0 12 10" id="icon-catalog" xmlns="http://www.w3.org/2000/svg"><path d="M2.948 1.868a1.868 1.868 0 0 0-1.845 1.58L.185 9.314A.093.093 0 0 1 0 9.296V.934A.934.934 0 0 1 .934 0h2.583a.467.467 0 0 1 .367.178l1.33 1.69H2.947zm8.118.934H2.95a.934.934 0 0 0-.923.788l-.865 5.48a.233.233 0 0 0 .23.27H10.4a.934.934 0 0 0 .924-.801l.668-4.67a.934.934 0 0 0-.925-1.067z"/></symbol><symbol viewBox="0 0 17 17" id="icon-close" xmlns="http://www.w3.org/2000/svg"><path fill-rule="evenodd" clip-rule="evenodd" d="M15.708 1.707A1 1 0 1 0 14.294.293L8.001 6.586 1.707.293A1 1 0 0 0 .293 1.707l6.293 6.294-6.293 6.293a1 1 0 1 0 1.414 1.414l6.294-6.293 6.293 6.293a1 1 0 0 0 1.414-1.414L9.415 8.001l6.293-6.294z"/></symbol><symbol viewBox="0 0 12 12" id="icon-company" xmlns="http://www.w3.org/2000/svg"><path d="M6 0a2.667 2.667 0 1 0 0 5.333A2.667 2.667 0 0 0 6 0zm0 7.333c-2.003 0-6 1.006-6 3v1c0 .368.299.667.667.667H4.97l.446-2.667-.112-.444a.716.716 0 1 1 1.39 0l-.112.444L7.03 12h4.304a.667.667 0 0 0 .667-.667v-1c0-1.994-3.997-3-6-3z"/></symbol><symbol viewBox="0 0 20 20" id="icon-del" xmlns="http://www.w3.org/2000/svg"><path fill-rule="evenodd" clip-rule="evenodd" d="M13.18.556a1.91 1.91 0 0 0 1.347.555h2.014a1.111 1.111 0 0 1 0 2.223H3.111a1.111 1.111 0 1 1 0-2.223h2.014c.505 0 .989-.2 1.347-.555A1.91 1.91 0 0 1 7.819 0h4.014c.505 0 .99.2 1.347.556zM5.354 20c-1.23 0-2.236-1-2.236-2.222V4.445h13.416v13.333A2.236 2.236 0 0 1 14.298 20H5.354zM7.536 7.876a.76.76 0 0 0-.763.758v7.282a.76.76 0 0 0 .763.759.76.76 0 0 0 .763-.759V8.634a.76.76 0 0 0-.763-.758zm3.816.758c0-.418.342-.758.764-.758a.76.76 0 0 1 .763.758v7.282a.76.76 0 0 1-.763.759.761.761 0 0 1-.764-.759V8.634z"/></symbol><symbol viewBox="0 0 32 40" id="icon-docs" xmlns="http://www.w3.org/2000/svg"><path d="M32 36a4 4 0 0 1-4 4H4a4 4 0 0 1-4-4V4a4 4 0 0 1 4-4h18l10 10v26z"/><path d="M30.5 11H23a2 2 0 0 1-2-2V1.5l9.5 9.5z" fill="#DEE2E6"/></symbol><symbol viewBox="0 0 21 24" id="icon-docs-add" xmlns="http://www.w3.org/2000/svg"><path d="M15.43 0c-1.392 0-2.76.54-3.816 1.595l-9.383 9.383c-2.975 2.975-2.975 7.815 0 10.79 2.976 2.976 7.816 2.976 10.79 0l5.552-5.551a.995.995 0 0 0-1.407-1.407l-5.552 5.551a5.628 5.628 0 0 1-7.975 0 5.628 5.628 0 0 1 0-7.975l9.383-9.383a3.417 3.417 0 0 1 4.848 0 3.417 3.417 0 0 1 0 4.847l-9.383 9.383a1.205 1.205 0 0 1-1.72 0 1.205 1.205 0 0 1 0-1.72l7.897-7.897a.995.995 0 0 0-1.408-1.407L5.36 14.105a3.216 3.216 0 0 0 0 4.535 3.216 3.216 0 0 0 4.535 0l9.383-9.383A5.427 5.427 0 0 0 15.43 0z"/></symbol><symbol viewBox="0 0 20 20" id="icon-edit" xmlns="http://www.w3.org/2000/svg"><path d="M17.977 5.805l1.859-1.858a.561.561 0 0 0 0-.793l-2.99-2.99a.561.561 0 0 0-.793 0L1.123 15.095l.017.018a.735.735 0 0 0-.336.467l-.786 3.527a.732.732 0 0 0 .875.875l3.527-.786a.732.732 0 0 0 .467-.336l.018.018.924-.925-3.782-3.782 1.435-1.435 3.783 3.782 9.277-9.277-3.782-3.783 1.435-1.435 3.782 3.782z"/></symbol><symbol viewBox="0 0 5 25" id="icon-more" xmlns="http://www.w3.org/2000/svg"><path d="M5 2.5a2.5 2.5 0 1 1-5 0 2.5 2.5 0 0 1 5 0zm0 10a2.5 2.5 0 1 1-5 0 2.5 2.5 0 0 1 5 0zm0 10a2.5 2.5 0 1 1-5 0 2.5 2.5 0 0 1 5 0z"/></symbol><symbol viewBox="0 0 17 12" id="icon-next" xmlns="http://www.w3.org/2000/svg"><path fill-rule="evenodd" clip-rule="evenodd" d="M16.53 6.53a.75.75 0 0 0 0-1.06L11.757.697a.75.75 0 0 0-1.06 1.06l3.492 3.493H1a.75.75 0 0 0 0 1.5h13.19l-3.493 3.493a.75.75 0 1 0 1.06 1.06L16.53 6.53z"/></symbol><symbol viewBox="0 0 12 12" id="icon-orders" xmlns="http://www.w3.org/2000/svg"><path d="M1.292.205a54.33 54.33 0 0 1 9.416 0 1.2 1.2 0 0 1 1.091 1.089C11.933 2.796 12 4.364 12 6c0 1.636-.067 3.204-.2 4.706a1.2 1.2 0 0 1-1.092 1.09 54.306 54.306 0 0 1-9.416 0 1.2 1.2 0 0 1-1.091-1.09A52.983 52.983 0 0 1 0 6c0-1.636.067-3.204.2-4.706A1.2 1.2 0 0 1 1.293.204zM3 4.2h6A.6.6 0 0 0 9 3H3a.6.6 0 0 0 0 1.2zm0 2.4h6a.6.6 0 0 0 0-1.2H3a.6.6 0 0 0 0 1.2zM3 9h3a.6.6 0 0 0 0-1.2H3A.6.6 0 0 0 3 9z"/></symbol><symbol viewBox="0 0 28 20" id="icon-photo" xmlns="http://www.w3.org/2000/svg"><path d="M13.513 15.95a4.865 4.865 0 1 0 0-9.73 4.865 4.865 0 0 0 0 9.73z"/><path d="M25.406 3.243h-4.827c-.361 0-.7-.18-.9-.48L18.16.481a1.08 1.08 0 0 0-.9-.482H9.768c-.361 0-.7.18-.9.482l-1.52 2.28c-.2.3-.538.481-.9.481H1.622A1.624 1.624 0 0 0 0 4.865v13.514C0 19.274.726 20 1.622 20h23.784c.896 0 1.622-.726 1.622-1.621V4.865c0-.895-.726-1.622-1.622-1.622zm-11.892 14.33a6.493 6.493 0 0 1-6.487-6.488A6.495 6.495 0 0 1 13.514 4.6 6.495 6.495 0 0 1 20 11.085a6.494 6.494 0 0 1-6.486 6.487zm8.108-11.887c0 .296-.24.535-.535.535h-.011a.535.535 0 0 1-.535-.535v-.011c0-.296.24-.535.535-.535h.01c.296 0 .536.24.536.535v.011z"/><path d="M5.406 1.081H3.244v1.081h2.162v-1.08z"/></symbol><symbol viewBox="0 0 20 20" id="icon-print" xmlns="http://www.w3.org/2000/svg"><path d="M17.143 1.429A1.43 1.43 0 0 0 15.714 0H4.286a1.43 1.43 0 0 0-1.429 1.429v1.428h14.286V1.43zm1.428 2.857H1.43A1.43 1.43 0 0 0 0 5.714v8.572c0 .788.64 1.428 1.429 1.428h1.428v2.857c0 .789.64 1.429 1.429 1.429h11.428a1.43 1.43 0 0 0 1.429-1.429v-2.857h1.428A1.43 1.43 0 0 0 20 14.286V5.714a1.43 1.43 0 0 0-1.429-1.428zM15.714 18.57H4.286v-7.14h11.428v7.142zm1.429-10h-2.857V7.143h2.857V8.57zM10 15.714H5.714v1.429H10v-1.429zm4.286-2.857H5.714v1.429h8.572v-1.429z"/></symbol><symbol viewBox="0 0 12 12" id="icon-projects" xmlns="http://www.w3.org/2000/svg"><path d="M.4 6.757l2.069.588a.19.19 0 0 1 .113.277l-.276.499a.193.193 0 0 0 .04.235l1.326 1.196c.065.058.16.065.232.016l.511-.352a.188.188 0 0 1 .293.13l.275 1.97c.022.156.211.22.321.108l1.7-1.723a.141.141 0 0 1 .03-.024c.09-.06.522-.396.292-1.108l-.009-.025-.291-.643a.192.192 0 0 1 .1-.254c2.388-1.05 3.652-3.143 4.28-4.898.38-1.065.54-2.102.593-2.536A.189.189 0 0 0 11.807 0c-.937.02-4.73.385-7.535 4.876a.188.188 0 0 1-.242.072L2.97 4.42s-.283-.246-.936.352L.322 6.434a.193.193 0 0 0 .079.323zm7.968-4.008a.803.803 0 0 1 .89-.496.804.804 0 0 1-.298 1.582.805.805 0 0 1-.592-1.086zM.316 10.65a.31.31 0 0 0 .221-.094l1.447-1.46a.32.32 0 0 0 0-.45.313.313 0 0 0-.446 0l-1.446 1.46a.318.318 0 1 0 .223.544zm2.56-.655l-1.447 1.461a.32.32 0 0 0 0 .45.312.312 0 0 0 .222.094c.08 0 .16-.032.222-.094l1.446-1.46a.32.32 0 0 0 0-.45.311.311 0 0 0-.443 0zM.316 12a.31.31 0 0 0 .221-.094L2.651 9.77a.32.32 0 0 0 0-.45.313.313 0 0 0-.446 0L.094 11.457a.32.32 0 0 0 0 .45.312.312 0 0 0 .221.094z"/></symbol><symbol viewBox="0 0 12 12" id="icon-requests" xmlns="http://www.w3.org/2000/svg"><path fill-rule="evenodd" clip-rule="evenodd" d="M10.332 0c.892 0 1.616.725 1.616 1.617h.019v6.578c0 .892-.725 1.616-1.617 1.616H5.91c-.02 0-.02.019-.02.019l-2.08 2.063a.32.32 0 0 1-.558-.223V9.81H1.617A1.618 1.618 0 0 1 0 8.195V1.617C0 .725.725 0 1.617 0h8.715zM6.325 6.062H5.25v-.096c.002-.993.27-1.297.746-1.598.349-.22.618-.468.618-.84 0-.394-.309-.65-.692-.65-.372 0-.715.248-.732.71H4.032c.026-1.135.866-1.674 1.896-1.674 1.126 0 1.926.579 1.926 1.572 0 .667-.346 1.084-.876 1.399-.449.27-.647.528-.653 1.081v.096zm.164 1.135a.69.69 0 0 1-.68.681.68.68 0 1 1 0-1.356.69.69 0 0 1 .68.675z"/></symbol><symbol viewBox="0 0 20 20" id="icon-search" xmlns="http://www.w3.org/2000/svg"><path d="M8.234 0C3.698 0 0 3.58 0 8.02c0 4.438 3.676 8.019 8.234 8.019a8.19 8.19 0 0 0 3.548-.794c.537-.257 1.182-.128 1.612.279l4.171 4.074c.56.536 1.44.536 2 0 .58-.557.58-1.48 0-2.058l-3.935-3.817a1.397 1.397 0 0 1-.236-1.737 7.698 7.698 0 0 0 1.075-3.945C16.469 3.58 12.792 0 8.234 0zm0 1.887c3.483 0 6.3 2.744 6.3 6.132 0 3.388-2.817 6.154-6.3 6.154-3.483 0-6.278-2.744-6.278-6.154 0-3.409 2.795-6.132 6.278-6.132z"/></symbol><symbol viewBox="0 0 12 12" id="icon-settings" xmlns="http://www.w3.org/2000/svg"><path d="M11.204 7.068a1.256 1.256 0 0 1-.56-1.062v-.012c0-.43.213-.822.56-1.062l.455-.291a.747.747 0 0 0 .24-1l-.788-1.302a.804.804 0 0 0-1.029-.303l-.494.227a1.34 1.34 0 0 1-1.202-.038l-.12-.05a1.166 1.166 0 0 1-.641-.961l-.04-.519C7.557.303 7.21 0 6.795 0h-1.59c-.413 0-.76.303-.787.695l-.04.519a1.19 1.19 0 0 1-.642.96c-.04.014-.066.039-.093.051a1.34 1.34 0 0 1-1.202.038l-.495-.227c-.374-.165-.828-.038-1.028.303L.104 3.654a.734.734 0 0 0 .24 1l.455.29c.347.228.56.62.56 1.075 0 .43-.213.822-.56 1.05l-.454.29a.744.744 0 0 0-.24 1L.891 9.66a.827.827 0 0 0 1.029.303l.494-.227a1.34 1.34 0 0 1 1.202.037c.027.026.067.038.094.051.374.19.614.557.64.961l.04.519c.028.392.375.695.79.695h1.59c.414 0 .761-.303.788-.695l.04-.519c.027-.404.28-.771.641-.96l.093-.052a1.34 1.34 0 0 1 1.203-.037l.494.227c.374.165.828.038 1.028-.303l.789-1.303a.734.734 0 0 0-.24-.999l-.402-.29zm-5.21 1.43c-1.455 0-2.63-1.113-2.63-2.492 0-1.378 1.175-2.49 2.63-2.49 1.457 0 2.632 1.112 2.632 2.49 0 1.379-1.175 2.491-2.631 2.491z"/></symbol><symbol viewBox="0 0 6 9" id="icon-sort" xmlns="http://www.w3.org/2000/svg"><path d="M.8 5a.4.4 0 0 0-.32.64l2.2 2.933a.4.4 0 0 0 .64 0l2.2-2.933A.4.4 0 0 0 5.2 5H.8zm4.4-1a.4.4 0 0 0 .32-.64L3.32.427a.4.4 0 0 0-.64 0L.48 3.36A.4.4 0 0 0 .8 4h4.4z"/></symbol><symbol viewBox="0 0 21 18" id="icon-submit" xmlns="http://www.w3.org/2000/svg"><path d="M0 18l21-9L0 0v7l15 2-15 2v7z"/></symbol><symbol viewBox="0 0 20 20" id="icon-upload" xmlns="http://www.w3.org/2000/svg"><path d="M1.25 20h17.5A1.25 1.25 0 0 0 20 18.75v-5a1.25 1.25 0 0 0-2.5 0v3.75h-15v-3.75a1.25 1.25 0 0 0-2.5 0v5A1.25 1.25 0 0 0 1.25 20zM10 0a1.25 1.25 0 0 0-1.25 1.25V7.5H5a1.25 1.25 0 0 0-.888 2.137l5 5a1.25 1.25 0 0 0 1.763 0l5-5A1.25 1.25 0 0 0 15 7.5h-3.75V1.25A1.25 1.25 0 0 0 10 0z"/></symbol><symbol viewBox="0 0 20 20" id="icon-user" xmlns="http://www.w3.org/2000/svg"><path d="M10 0a4.444 4.444 0 1 0 0 8.889A4.444 4.444 0 0 0 10 0zM0 17.222c0-3.324 6.662-5 10-5s10 1.676 10 5v1.667c0 .613-.498 1.111-1.111 1.111H1.11A1.112 1.112 0 0 1 0 18.889v-1.667z"/></symbol></svg>