<svg width="21" height="24" viewBox="0 0 21 24" xmlns="http://www.w3.org/2000/svg"><path d="M15.4302 0C14.0384 0 12.67 0.539524 11.6144 1.59511L2.2314 10.9781C-0.7438 13.9533 -0.7438 18.7934 2.2314 21.7686C5.2066 24.7438 10.0467 24.7438 13.0219 21.7686L18.5735 16.217C18.9621 15.8283 18.9621 15.1982 18.5735 14.8095V14.8095C18.1848 14.4209 17.5547 14.4209 17.166 14.8095L11.6144 20.3611C9.4055 22.5701 5.84777 22.5701 3.63885 20.3611C1.42993 18.1522 1.42993 14.5945 3.63885 12.3856L13.0219 3.00257C14.3668 1.65767 16.5249 1.65767 17.8698 3.00257C19.2147 4.34746 19.2147 6.50556 17.8698 7.85046L8.48674 17.2335C8.00586 17.7144 7.2474 17.7144 6.76652 17.2335C6.28564 16.7526 6.28564 15.9941 6.76652 15.5133L14.6639 7.61588C15.0526 7.22723 15.0526 6.59709 14.6639 6.20843V6.20843C14.2752 5.81977 13.6451 5.81977 13.2564 6.20843L5.35907 14.1058C4.11191 15.353 4.11191 17.3938 5.35907 18.6409C6.60623 19.8881 8.64704 19.8881 9.8942 18.6409L19.2772 9.25791C21.3884 7.14673 21.3884 3.70629 19.2772 1.59511C18.2216 0.539524 16.822 0 15.4302 0Z"/></svg>