<svg width="12" height="12" viewBox="0 0 12 12" xmlns="http://www.w3.org/2000/svg"><path d="M0.400727 6.75676L2.46854 7.34499C2.58657 7.37837 2.64164 7.5135 2.58184 7.62161L2.30645 8.12081C2.26396 8.19871 2.2797 8.29728 2.34579 8.3561L3.6724 9.55164C3.73692 9.61046 3.83292 9.61682 3.90373 9.56754L4.41518 9.21619C4.53163 9.1367 4.689 9.20665 4.70788 9.34655L4.98328 11.3163C5.00531 11.4721 5.19415 11.5357 5.30431 11.4244L7.00388 9.70108C7.01332 9.69154 7.02276 9.68359 7.03378 9.67723C7.12348 9.61682 7.55624 9.28137 7.32648 8.56914C7.32334 8.56119 7.32019 8.55165 7.31704 8.5437L7.02591 7.90142C6.98185 7.80444 7.02748 7.68997 7.12505 7.64705C9.5139 6.59778 10.7776 4.504 11.4055 2.74885C11.7863 1.68368 11.9452 0.647125 11.9987 0.213108C12.0129 0.0970518 11.9216 -0.00310592 11.8067 7.36974e-05C10.8704 0.0191514 7.07784 0.384807 4.27197 4.87601C4.22004 4.95868 4.11618 4.99048 4.02963 4.94756L2.97054 4.42133C2.97054 4.42133 2.68728 4.17491 2.0342 4.77268L0.322043 6.43403C0.216607 6.53736 0.26067 6.71542 0.400727 6.75676ZM8.36826 2.74885C8.50517 2.39432 8.88757 2.18129 9.25739 2.25283C9.75309 2.34981 10.0316 2.87127 9.84909 3.33867C9.71218 3.6932 9.32977 3.90623 8.95996 3.83469C8.46425 3.73771 8.18728 3.21625 8.36826 2.74885Z M0.315522 10.6502C0.39578 10.6502 0.476038 10.6184 0.537411 10.5564L1.98362 9.09538C2.10637 8.97137 2.10637 8.76947 1.98362 8.64546C1.86087 8.52146 1.66102 8.52146 1.53827 8.64546L0.0920601 10.1065C-0.0306867 10.2305 -0.0306867 10.4324 0.0920601 10.5564C0.155007 10.6184 0.235265 10.6502 0.315522 10.6502Z M2.87567 9.99523L1.42946 11.4563C1.30672 11.5803 1.30672 11.7822 1.42946 11.9062C1.49084 11.9682 1.57109 12 1.65135 12C1.73161 12 1.81187 11.9682 1.87324 11.9062L3.31945 10.4451C3.4422 10.3211 3.4422 10.1192 3.31945 9.99523C3.1967 9.87122 2.99842 9.87122 2.87567 9.99523Z M0.315414 11.9999C0.395671 11.9999 0.475929 11.9681 0.537302 11.9061L2.65075 9.76942C2.7735 9.64542 2.7735 9.44351 2.65075 9.31951C2.528 9.1955 2.32815 9.1955 2.2054 9.31951L0.093525 11.4562C-0.0292219 11.5802 -0.0292219 11.7821 0.093525 11.9061C0.154898 11.9681 0.235156 11.9999 0.315414 11.9999Z"/></svg>