<svg width="16" height="16" viewBox="0 0 16 16" xmlns="http://www.w3.org/2000/svg"><path fill-rule="evenodd" clip-rule="evenodd" d="M0 8C0 8.37871 0.307005 8.68571 0.685714 8.68571H7.31429H8.68571H15.3143C15.693 8.68571 16 8.37871 16 8C16 7.62129 15.693 7.31429 15.3143 7.31429H8.68571H0.685714C0.307005 7.31429 0 7.62129 0 8Z"/><path fill-rule="evenodd" clip-rule="evenodd" d="M8 16C7.62129 16 7.31429 15.693 7.31429 15.3143V8.68571V7.31429V0.685714C7.31429 0.307005 7.62129 0 8 0C8.37871 0 8.68571 0.307005 8.68571 0.685714V7.31429V8.68571V15.3143C8.68571 15.693 8.37871 16 8 16Z"/></svg>
