<svg width="20" height="20" viewBox="0 0 20 20" xmlns="http://www.w3.org/2000/svg"><path d="M17.9775 5.8052L19.8358 3.9469C20.0549 3.728 20.0549 3.3724 19.8361 3.1536L16.8463 0.1644C16.6274 -0.0547 16.2718 -0.0546999 16.053 0.1638L1.12221 15.0952L1.14011 15.113C0.971609 15.2153 0.848209 15.3824 0.803809 15.5803L0.01771 19.1065C-0.03706 19.3519 0.0370098 19.6079 0.21491 19.7852C0.35361 19.9242 0.54061 20 0.73311 20C0.78621 20 0.84001 19.9943 0.89281 19.9824L4.42011 19.1959C4.61811 19.1519 4.78481 19.0288 4.88731 18.86L4.90491 18.8776L5.82941 17.9531L2.04701 14.1707L3.48201 12.7356L7.26451 16.5177L16.5425 7.2405L12.7598 3.4577L14.1948 2.0227L17.9775 5.8052Z"/></svg>