<svg width="20" height="18" viewBox="0 0 20 18" xmlns="http://www.w3.org/2000/svg">
<path d="M6.51769 1.19872V0.51282C6.51769 0.229744 6.28795 0 6.00487 0H2.71282C2.42974 0 2.2 0.229744 2.2 0.51282V1.19872H0V2.99359H2.2V3.8059C2.2 4.08897 2.42974 4.31872 2.71282 4.31872H6.00487C6.28795 4.31872 6.51769 4.08897 6.51769 3.8059V2.99359H20V1.19872H6.51769ZM12.1595 7.26026C12.1595 6.97718 11.9297 6.74744 11.6467 6.74744H8.35462C8.07154 6.74744 7.8418 6.97718 7.8418 7.26026V8.00923H0V9.8041H7.8418V10.5533C7.8418 10.8364 8.07154 11.0662 8.35462 11.0662H11.6467C11.9297 11.0662 12.1595 10.8364 12.1595 10.5533V9.8041H20V8.00923H12.1595V7.26026ZM17.7997 14.0708C17.7997 13.7877 17.57 13.5579 17.2869 13.5579H13.9949C13.7118 13.5579 13.4821 13.7877 13.4821 14.0708V14.8197H0V16.6146H13.4821V17.3638C13.4821 17.6469 13.7118 17.8767 13.9949 17.8767H17.2869C17.57 17.8767 17.7997 17.6469 17.7997 17.3638V16.6146H20V14.8197H17.7997V14.0708Z"/>
</svg>
