<svg width="12" height="12" viewBox="0 0 12 12" xmlns="http://www.w3.org/2000/svg"><path d="M1.29198 0.204667C2.86132 0.0682225 4.43066 0 6 0C7.56935 0 9.13869 0.0682228 10.708 0.204668C11.2877 0.255084 11.7477 0.714115 11.7993 1.2937C11.9331 2.79558 12 4.36435 12 6C12 7.63565 11.9331 9.20441 11.7993 10.7063C11.7477 11.2859 11.2877 11.7449 10.708 11.7953C9.13868 11.9318 7.56934 12 6 12C4.43066 12 2.86131 11.9318 1.29196 11.7953C0.712272 11.7449 0.252273 11.2859 0.200651 10.7063C0.0668837 9.20442 0 7.63565 0 6C0 4.36435 0.0668834 2.79559 0.20065 1.29371C0.25226 0.714111 0.712269 0.25507 1.29198 0.204667ZM3 4.2H9C9.33137 4.2 9.6 3.93137 9.6 3.6C9.6 3.26863 9.33137 3 9 3H3C2.66863 3 2.4 3.26863 2.4 3.6C2.4 3.93137 2.66863 4.2 3 4.2ZM3 6.6H9C9.33137 6.6 9.6 6.33137 9.6 6C9.6 5.66863 9.33137 5.4 9 5.4H3C2.66863 5.4 2.4 5.66863 2.4 6C2.4 6.33137 2.66863 6.6 3 6.6ZM3 9H6C6.33137 9 6.6 8.73137 6.6 8.4C6.6 8.06863 6.33137 7.8 6 7.8H3C2.66863 7.8 2.4 8.06863 2.4 8.4C2.4 8.73137 2.66863 9 3 9Z"/></svg>