<svg width="20" height="20" viewBox="0 0 20 20" xmlns="http://www.w3.org/2000/svg"><path d="M1.25 20H18.75C19.0815 20 19.3995 19.8683 19.6339 19.6339C19.8683 19.3995 20 19.0815 20 18.75V13.75C20 13.4185 19.8683 13.1005 19.6339 12.8661C19.3995 12.6317 19.0815 12.5 18.75 12.5C18.4185 12.5 18.1005 12.6317 17.8661 12.8661C17.6317 13.1005 17.5 13.4185 17.5 13.75V17.5H2.5V13.75C2.5 13.4185 2.3683 13.1005 2.13388 12.8661C1.89946 12.6317 1.58152 12.5 1.25 12.5C0.918479 12.5 0.600537 12.6317 0.366117 12.8661C0.131696 13.1005 0 13.4185 0 13.75V18.75C0 19.0815 0.131696 19.3995 0.366117 19.6339C0.600537 19.8683 0.918479 20 1.25 20Z M9.99994 0C9.66842 0 9.35048 0.131696 9.11606 0.366117C8.88164 0.600537 8.74994 0.918479 8.74994 1.25V7.5H4.99995C4.75166 7.49856 4.50858 7.57108 4.30168 7.70833C4.09478 7.84559 3.93344 8.04134 3.83823 8.27065C3.74302 8.49995 3.71826 8.75242 3.7671 8.99585C3.81593 9.23929 3.93616 9.46266 4.11245 9.6375L9.11245 14.6375C9.34665 14.8703 9.66346 15.001 9.99369 15.001C10.3239 15.001 10.6407 14.8703 10.8749 14.6375L15.8749 9.6375C16.0505 9.46341 16.1704 9.24118 16.2197 8.99892C16.2689 8.75665 16.2452 8.50523 16.1515 8.27643C16.0579 8.04764 15.8985 7.85176 15.6935 7.71356C15.4885 7.57536 15.2472 7.50104 14.9999 7.5H11.2499V1.25C11.2499 0.918479 11.1182 0.600537 10.8838 0.366117C10.6494 0.131696 10.3315 0 9.99994 0Z" /></svg>