<svg width="20" height="20" viewBox="0 0 20 20"  xmlns="http://www.w3.org/2000/svg"><path d="M10.0001 0C8.82137 0 7.69091 0.468252 6.85741 1.30175C6.02392 2.13524 5.55566 3.2657 5.55566 4.44444C5.55566 5.62318 6.02392 6.75365 6.85741 7.58714C7.69091 8.42064 8.82137 8.88889 10.0001 8.88889C11.1788 8.88889 12.3093 8.42064 13.1428 7.58714C13.9763 6.75365 14.4446 5.62318 14.4446 4.44444C14.4446 3.2657 13.9763 2.13524 13.1428 1.30175C12.3093 0.468252 11.1788 0 10.0001 0Z"/><path d="M0 17.2222C0 13.8978 6.66222 12.2222 10 12.2222C13.3378 12.2222 20 13.8978 20 17.2222V18.8889C20 19.5022 19.5022 20 18.8889 20H8.28559H1.11111C0.497778 20 0 19.5022 0 18.8889V17.2222Z" /></svg>
