<svg width="17" height="17" viewBox="0 0 17 17" xmlns="http://www.w3.org/2000/svg">
<path fill-rule="evenodd" clip-rule="evenodd" d="M15.7083 1.70711C16.0989 1.31658 16.0989 0.68342 15.7083 0.292895C15.3178 -0.0976305 14.6846 -0.0976317 14.2941 0.292892L8.00061 6.58638L1.70711 0.292892C1.31658 -0.0976317 0.683415 -0.0976305 0.292892 0.292895C-0.0976317 0.68342 -0.0976305 1.31658 0.292895 1.70711L6.5864 8.00059L0.292895 14.2941C-0.0976305 14.6846 -0.0976317 15.3178 0.292892 15.7083C0.683415 16.0988 1.31658 16.0988 1.70711 15.7083L8.00061 9.4148L14.2941 15.7083C14.6846 16.0988 15.3178 16.0988 15.7083 15.7083C16.0989 15.3178 16.0989 14.6846 15.7083 14.2941L9.41483 8.00059L15.7083 1.70711Z"/></svg>
