<svg width="20" height="20" viewBox="0 0 20 20" xmlns="http://www.w3.org/2000/svg"><path fill-rule="evenodd" clip-rule="evenodd" d="M7.96812 17.1258C8.8006 17.1258 9.39523 17.7844 9.39523 18.5629C9.39523 19.3413 8.8006 20 7.96812 20C7.19511 20 6.54102 19.3413 6.54102 18.5629C6.54102 17.7844 7.19511 17.1258 7.96812 17.1258Z"/><path fill-rule="evenodd" clip-rule="evenodd" d="M15.6385 17.1258C16.4115 17.1258 17.0656 17.7844 17.0656 18.5629C17.0656 19.3413 16.4115 20 15.6385 20C14.8061 20 14.2114 19.3413 14.2114 18.5629C14.2114 17.7844 14.8061 17.1258 15.6385 17.1258Z"/><path d="M0.594627 1.19761C0.237851 1.19761 0 0.958084 0 0.598803C0 0.239521 0.237851 0 0.594627 0H1.84334C3.27045 0 4.4597 1.01796 4.69755 2.39521L4.87594 3.47305H19.2065C19.6822 3.47305 20.0984 3.89222 19.9795 4.43114L17.8388 11.8563C17.601 12.8743 16.709 13.5329 15.6982 13.5329H6.5409V13.8323C6.71929 14.6108 7.37338 15.2096 8.20585 15.2096H17.3036C17.6604 15.2096 17.8983 15.4491 17.8983 15.8084C17.8983 16.1677 17.6604 16.4072 17.3036 16.4072H8.20585C6.83821 16.4072 5.64896 15.3892 5.41111 14.012L3.5083 2.57485C3.38937 1.79641 2.67582 1.19761 1.84334 1.19761H0.594627Z"/></svg>