<svg width="20" height="20" viewBox="0 0 20 20" xmlns="http://www.w3.org/2000/svg"><path d="M17.1429 1.42857C17.1429 0.64 16.5029 0 15.7143 0H4.28575C3.49718 0 2.85718 0.64 2.85718 1.42857V2.85714H17.1429V1.42857Z M18.5714 4.28572H1.42857C0.64 4.28572 0 4.92572 0 5.71429V14.2857C0 15.0743 0.64 15.7143 1.42857 15.7143H2.85714V18.5714C2.85714 19.36 3.49714 20 4.28571 20H15.7143C16.5029 20 17.1429 19.36 17.1429 18.5714V15.7143H18.5714C19.36 15.7143 20 15.0743 20 14.2857V5.71429C20 4.92572 19.36 4.28572 18.5714 4.28572ZM15.7143 18.5714H4.28571V11.4286H15.7143V18.5714ZM17.1429 8.57143H14.2857V7.14286H17.1429V8.57143Z M9.99995 15.7143H5.71423V17.1429H9.99995V15.7143Z M14.2857 12.8571H5.71423V14.2857H14.2857V12.8571Z"/></svg>