<svg width="12" height="12" viewBox="0 0 12 12" xmlns="http://www.w3.org/2000/svg"><path d="M11.2044 7.06849C10.8571 6.84088 10.6434 6.44889 10.6434 6.00632V5.99368C10.6434 5.56375 10.8571 5.17176 11.2044 4.93151L11.6586 4.64067C11.9925 4.41307 12.0994 3.98314 11.899 3.64173L11.1109 2.3393C10.9105 1.99789 10.4564 1.8588 10.0824 2.03583L9.58813 2.26343C9.20075 2.44046 8.74659 2.42782 8.38593 2.2255L8.26571 2.17492C7.89169 1.98525 7.65125 1.61855 7.62453 1.21391L7.58446 0.695469C7.55774 0.303477 7.21044 0 6.79635 0H5.20678C4.79269 0 4.44538 0.303477 4.41867 0.695469L4.37859 1.21391C4.35188 1.61855 4.09808 1.98525 3.73742 2.17492C3.69735 2.18757 3.67063 2.21286 3.64392 2.2255C3.28326 2.42782 2.82909 2.44046 2.44172 2.26343L1.94748 2.03583C1.57346 1.87144 1.1193 1.99789 0.91893 2.3393L0.104106 3.65437C-0.0962606 3.99578 -0.00275623 4.42571 0.344546 4.65332L0.79871 4.94415C1.14601 5.17176 1.35974 5.56375 1.35974 6.01897C1.35974 6.44889 1.14601 6.84088 0.79871 7.06849L0.344546 7.35933C0.0106015 7.57429 -0.0962606 8.01686 0.104106 8.35827L0.892215 9.6607C1.10594 10.0021 1.5601 10.1286 1.92076 9.96417L2.415 9.73656C2.80238 9.55954 3.25654 9.57218 3.6172 9.7745C3.64392 9.79979 3.68399 9.81243 3.71071 9.82508C4.08472 10.0148 4.32516 10.3815 4.35188 10.7861L4.39195 11.3045C4.41867 11.6965 4.76597 12 5.18006 12H6.76964C7.18373 12 7.53103 11.6965 7.55774 11.3045L7.59782 10.7861C7.62453 10.3815 7.87833 10.0148 8.23899 9.82508L8.3325 9.7745C8.69316 9.57218 9.14732 9.55954 9.53469 9.73656L10.0289 9.96417C10.4029 10.1286 10.8571 10.0021 11.0575 9.6607L11.8456 8.35827C12.046 8.01686 11.9525 7.58693 11.6052 7.35933L11.2044 7.06849ZM5.99488 8.49736C4.53889 8.49736 3.3634 7.38461 3.3634 6.00632C3.3634 4.62803 4.53889 3.51528 5.99488 3.51528C7.45088 3.51528 8.62637 4.62803 8.62637 6.00632C8.62637 7.38461 7.45088 8.49736 5.99488 8.49736Z"/></svg>