<svg width="12" height="12" viewBox="0 0 12 12" xmlns="http://www.w3.org/2000/svg"><path fill-rule="evenodd" clip-rule="evenodd" d="M10.3317 0C11.2237 0 11.9484 0.724707 11.9484 1.61665H11.967V8.19477C11.967 9.08672 11.2423 9.81143 10.3503 9.81143H5.90915C5.89057 9.81143 5.89057 9.83001 5.89057 9.83001L3.80936 11.8926C3.60496 12.1156 3.25189 11.967 3.25189 11.6696V9.81143H1.61666C0.724708 9.81143 0 9.08672 0 8.19477V1.61665C0 0.724707 0.724708 0 1.61666 0H10.3317ZM6.32492 6.06247H5.24951V5.96599C5.25235 4.97287 5.51907 4.66926 5.99577 4.36849C6.34478 4.14717 6.61434 3.9003 6.61434 3.52859C6.61434 3.13418 6.30505 2.87881 5.92199 2.87881C5.55028 2.87881 5.20695 3.12567 5.18992 3.58818H4.03223C4.05776 2.45319 4.89766 1.91406 5.92767 1.91406C7.05415 1.91406 7.85432 2.49291 7.85432 3.48603C7.85432 4.15284 7.50815 4.56995 6.97754 4.88491C6.52922 5.15447 6.33059 5.41268 6.32492 5.96599V6.06247ZM6.48949 7.19746C6.48665 7.57485 6.17169 7.87846 5.80849 7.87846C5.43395 7.87846 5.12466 7.57485 5.1275 7.19746C5.12466 6.82575 5.43395 6.52214 5.80849 6.52214C6.17169 6.52214 6.48665 6.82575 6.48949 7.19746Z"/></svg>
