<svg width="20" height="20" viewBox="0 0 20 20" xmlns="http://www.w3.org/2000/svg"><path fill-rule="evenodd" clip-rule="evenodd" d="M13.1802 0.555698C13.5383 0.911619 14.0226 1.1114 14.5274 1.1114H16.5411C17.1547 1.1114 17.6522 1.60885 17.6522 2.22249C17.6522 2.83613 17.1547 3.33359 16.5411 3.33359H3.1111C2.49745 3.33359 2 2.83613 2 2.22249C2 1.60885 2.49745 1.1114 3.1111 1.1114H5.12476C5.62961 1.1114 6.11394 0.911619 6.47197 0.555698C6.83 0.199777 7.31433 0 7.81917 0H11.833C12.3378 0 12.8222 0.199777 13.1802 0.555698ZM5.354 20C4.12397 20 3.11802 18.9997 3.11802 17.7778V4.44468H16.5339V17.7778C16.5339 18.9997 15.5273 20 14.2979 20H5.354ZM7.53616 7.87597C7.11463 7.87597 6.77292 8.21557 6.77292 8.6345V15.9164C6.77292 16.3353 7.11463 16.6749 7.53616 16.6749C7.95769 16.6749 8.2994 16.3353 8.2994 15.9164V8.6345C8.2994 8.21557 7.95769 7.87597 7.53616 7.87597ZM11.3523 8.6345C11.3523 8.21557 11.6941 7.87597 12.1156 7.87597C12.5371 7.87597 12.8788 8.21557 12.8788 8.6345V15.9164C12.8788 16.3353 12.5371 16.6749 12.1156 16.6749C11.6941 16.6749 11.3523 16.3353 11.3523 15.9164V8.6345Z"/></svg>