<svg width="28" height="20" viewBox="0 0 28 20" xmlns="http://www.w3.org/2000/svg">
<path d="M13.5134 15.9506C16.2002 15.9506 18.3783 13.7725 18.3783 11.0857C18.3783 8.39885 16.2002 6.2207 13.5134 6.2207C10.8265 6.2207 8.64844 8.39885 8.64844 11.0857C8.64844 13.7725 10.8265 15.9506 13.5134 15.9506Z"/>
<path d="M25.4058 3.24329H20.5787C20.2177 3.24329 19.8799 3.06251 19.6793 2.7622L18.1591 0.481689C17.9585 0.180183 17.6207 0 17.2594 0H9.7677C9.40675 0 9.0689 0.180483 8.8683 0.481689L7.34815 2.7622C7.14755 3.06251 6.8097 3.24329 6.44845 3.24329H1.62164C0.725835 3.24329 0 3.96973 0 4.86494V18.3787C0 19.2742 0.725835 20 1.62164 20H25.4058C26.3016 20 27.0275 19.2742 27.0275 18.3787V4.86494C27.0275 3.96973 26.3016 3.24329 25.4058 3.24329ZM13.5137 17.5721C9.9368 17.5721 7.02715 14.6627 7.02715 11.0855C7.02715 7.5097 9.9368 4.59857 13.5137 4.59857C17.0906 4.59857 20.0003 7.5094 20.0003 11.0855C20.0003 14.6624 17.0906 17.5721 13.5137 17.5721ZM21.622 5.68625C21.622 5.98175 21.3826 6.2205 21.0868 6.2205H21.076C20.7805 6.2205 20.5406 5.98175 20.5406 5.68625V5.67485C20.5406 5.37935 20.7802 5.1397 21.076 5.1397H21.0868C21.3823 5.1397 21.622 5.37935 21.622 5.67485V5.68625Z"/>
<path d="M5.40635 1.08105H3.24414V2.16245H5.40635V1.08105Z"/>
</svg>