<svg width="12" height="12" viewBox="0 0 12 12" xmlns="http://www.w3.org/2000/svg"><path d="M6 0C5.29276 0 4.61448 0.280951 4.11438 0.781048C3.61428 1.28115 3.33333 1.95942 3.33333 2.66667C3.33333 3.37391 3.61428 4.05219 4.11438 4.55229C4.61448 5.05238 5.29276 5.33333 6 5.33333C6.70724 5.33333 7.38552 5.05238 7.88562 4.55229C8.38572 4.05219 8.66667 3.37391 8.66667 2.66667C8.66667 1.95942 8.38572 1.28115 7.88562 0.781048C7.38552 0.280951 6.70724 0 6 0ZM6 7.33333C3.99733 7.33333 0 8.33867 0 10.3333V11.3333C0 11.7013 0.298667 12 0.666667 12H4.97135L5.41667 9.33333L5.30469 8.88932C5.19202 8.43732 5.53467 8 6 8C6.46533 8 6.80798 8.43732 6.69531 8.88932L6.58333 9.33333L7.02865 12H11.3333C11.7013 12 12 11.7013 12 11.3333V10.3333C12 8.33867 8.00267 7.33333 6 7.33333Z"/></svg>