<svg width="20" height="20" viewBox="0 0 20 20" xmlns="http://www.w3.org/2000/svg"><path d="M8.23435 0C3.69793 0 0 3.58081 0 8.0193C0 12.4578 3.67643 16.0386 8.23435 16.0386C9.50282 16.0386 10.7068 15.7599 11.7818 15.2452C12.3193 14.9879 12.9643 15.1166 13.3942 15.524L17.5652 19.598C18.1242 20.134 19.0056 20.134 19.5646 19.598C20.1451 19.0405 20.1451 18.1185 19.5646 17.5395L15.6302 13.7229C15.1572 13.2726 15.0497 12.5436 15.3937 11.9861C16.0817 10.8282 16.4687 9.47735 16.4687 8.04074C16.4687 3.58081 12.7923 0 8.23435 0ZM8.23435 1.88689C11.7173 1.88689 14.5337 4.63147 14.5337 8.0193C14.5337 11.4071 11.7173 14.1731 8.23435 14.1731C4.75141 14.1731 1.95646 11.4286 1.95646 8.0193C1.95646 4.61002 4.75141 1.88689 8.23435 1.88689Z"/></svg>