<svg width="12" height="10" viewBox="0 0 12 10" xmlns="http://www.w3.org/2000/svg"><path d="M2.94829 1.86811C2.50285 1.8681 2.07206 2.02725 1.73362 2.31687C1.39518 2.60649 1.17137 3.00751 1.10254 3.4476L0.185128 9.31378C0.180729 9.3366 0.167985 9.35695 0.149385 9.37088C0.130785 9.3848 0.107663 9.39129 0.0845333 9.38909C0.0614038 9.38688 0.0399273 9.37613 0.0242967 9.35894C0.00866613 9.34175 3.4139e-06 9.31935 0 9.29611V0.934071C0 0.68634 0.0984109 0.448755 0.273583 0.273583C0.448756 0.0984107 0.68634 0 0.934071 0H3.51674C3.58742 -2.60538e-07 3.65719 0.0160439 3.72077 0.0469232C3.78435 0.0778025 3.8401 0.122711 3.8838 0.178265L5.21326 1.86816L2.94829 1.86811Z M11.0659 2.802H2.94974C2.72725 2.802 2.51208 2.88141 2.34294 3.02594C2.17379 3.17047 2.06179 3.37063 2.0271 3.59039L1.16179 9.07056C1.15653 9.10389 1.15855 9.13797 1.16773 9.17045C1.1769 9.20292 1.193 9.23303 1.21492 9.25868C1.23684 9.28434 1.26407 9.30493 1.29471 9.31906C1.32536 9.33318 1.35871 9.3405 1.39245 9.3405H10.3987C10.6235 9.3405 10.8408 9.2594 11.0107 9.11208C11.1806 8.96476 11.2916 8.76111 11.3234 8.53853L11.9906 3.86817C12.0095 3.73569 11.9997 3.60069 11.9619 3.47231C11.9242 3.34393 11.8592 3.22517 11.7715 3.12407C11.6839 3.02297 11.5755 2.94189 11.4537 2.88632C11.332 2.83076 11.1997 2.802 11.0659 2.802Z"/></svg>
